<?xml version="1.0" encoding="utf-8"?>
<!-- Generator: Adobe Illustrator 24.0.2, SVG Export Plug-In . SVG Version: 6.00 Build 0)  -->
<!DOCTYPE svg PUBLIC "-//W3C//DTD SVG 1.1//EN" "http://www.w3.org/Graphics/SVG/1.1/DTD/svg11.dtd" [
	<!ENTITY ns_extend "http://ns.adobe.com/Extensibility/1.0/">
	<!ENTITY ns_ai "http://ns.adobe.com/AdobeIllustrator/10.0/">
	<!ENTITY ns_graphs "http://ns.adobe.com/Graphs/1.0/">
	<!ENTITY ns_vars "http://ns.adobe.com/Variables/1.0/">
	<!ENTITY ns_imrep "http://ns.adobe.com/ImageReplacement/1.0/">
	<!ENTITY ns_sfw "http://ns.adobe.com/SaveForWeb/1.0/">
	<!ENTITY ns_custom "http://ns.adobe.com/GenericCustomNamespace/1.0/">
	<!ENTITY ns_adobe_xpath "http://ns.adobe.com/XPath/1.0/">
]>
<svg version="1.1" id="Capa_1" xmlns:x="&ns_extend;" xmlns:i="&ns_ai;" xmlns:graph="&ns_graphs;"
	 xmlns="http://www.w3.org/2000/svg" xmlns:xlink="http://www.w3.org/1999/xlink" x="0px" y="0px" viewBox="0 0 512 512"
	 style="enable-background:new 0 0 512 512;" xml:space="preserve">
<style type="text/css">
	.st0{fill:#FFFFFF;}
</style>
<metadata>
	<sfw  xmlns="&ns_sfw;">
		<slices></slices>
		<sliceSourceBounds  bottomLeftOrigin="true" height="512" width="426.6" x="42.7" y="0"></sliceSourceBounds>
	</sfw>
</metadata>
<g>
	<g id="Page-1_32_">
		<g id="_x30_33---Bot-Waving" transform="translate(0 -1)">
			<path id="Shape_262_" class="st0" d="M145.1,154.7c-14.1,0-25.6,11.5-25.6,25.6s11.5,25.6,25.6,25.6s25.6-11.5,25.6-25.6
				S159.2,154.7,145.1,154.7z M145.1,188.8c-4.7,0-8.5-3.8-8.5-8.5c0-4.7,3.8-8.5,8.5-8.5s8.5,3.8,8.5,8.5
				C153.6,185,149.8,188.8,145.1,188.8z"/>
			<path id="Shape_261_" class="st0" d="M307.2,180.3c0-14.1-11.5-25.6-25.6-25.6c-14.1,0-25.6,11.5-25.6,25.6s11.5,25.6,25.6,25.6
				C295.7,205.9,307.2,194.4,307.2,180.3z M273.1,180.3c0-4.7,3.8-8.5,8.5-8.5c4.7,0,8.5,3.8,8.5,8.5c0,4.7-3.8,8.5-8.5,8.5
				C276.9,188.8,273.1,185,273.1,180.3z"/>
			<path id="Shape_260_" class="st0" d="M349.8,188.8c-0.1-47.1-38.2-85.3-85.3-85.3H162.2c-47.1,0-85.3,38.2-85.3,85.3
				s38.2,85.3,85.3,85.3h102.4C311.6,274.1,349.8,235.9,349.8,188.8L349.8,188.8z M93.9,188.8c0-37.7,30.6-68.2,68.3-68.3h102.4
				c37.7,0,68.3,30.6,68.3,68.3s-30.6,68.3-68.3,68.3H162.2C124.5,257,93.9,226.5,93.9,188.8L93.9,188.8z"/>
			<path id="Shape_259_" class="st0" d="M233,208.3c-5.6,4.3-12.6,6.5-19.6,6.1c-7.1,0.4-14-1.8-19.6-6.1c-3.4-3-8.5-2.8-11.7,0.4
				s-3.3,8.4-0.2,11.7c8.7,7.6,20,11.5,31.6,11c11.6,0.5,22.9-3.4,31.6-11c3.3-3.3,3.3-8.6,0-11.9
				C241.7,205.2,236.4,205.1,233,208.3L233,208.3z"/>
			<path id="Shape_258_" class="st0" d="M196.3,95h34.1c4.7,0,8.5-3.8,8.5-8.5c0-4.7-3.8-8.5-8.5-8.5h-34.1c-4.7,0-8.5,3.8-8.5,8.5
				S191.6,95,196.3,95z"/>
			<path id="Shape_257_" class="st0" d="M204.8,69.4h17.1c4.7,0,8.5-3.8,8.5-8.5s-3.8-8.5-8.5-8.5h-17.1c-4.7,0-8.5,3.8-8.5,8.5
				S200.1,69.4,204.8,69.4z"/>
			<path id="Shape_256_" class="st0" d="M413.8,265.6c-21.2,0-38.4,17.2-38.4,38.4c0,4.6,0.9,9.2,2.6,13.5
				c-15.7,17.1-36.9,28.2-59.9,31.3c-3.1-14.9-12.7-27.7-26.3-34.7c60.5-19.9,92.1-66.2,92.1-137c0.1-27.2-5.7-54.1-17.1-78.9V50.7
				c11.8-4.2,18.8-16.2,16.7-28.5C381.5,10,370.8,1,358.4,1c-12.5,0-23.1,9-25.2,21.3c-2.1,12.3,4.9,24.3,16.7,28.5v18.5
				C318.1,25.8,267.2,0.4,213.3,1.1C159.5,0.4,108.6,25.8,76.8,69.3V50.7c11.8-4.2,18.8-16.2,16.7-28.5C91.4,10,80.8,1,68.3,1
				s-23.1,9-25.2,21.3C41,34.6,48,46.6,59.8,50.7v47.6c-11.4,24.7-17.2,51.6-17.1,78.9c0,70.8,31.7,117.1,92.2,137
				c-18.7,9.7-29.5,30-27.1,50.9l7.6,68.3c2.7,24.3,22.4,43.3,46.8,45.2v0.4c0,18.8,15.3,34.1,34.1,34.1h34.1
				c18.8,0,34.1-15.3,34.1-34.1v-0.4c24.4-1.8,44.1-20.8,46.8-45.2l3.6-32.3c30.9-3.5,79.9-16.2,110-60.5
				c18.2-5.4,29.7-23.5,26.9-42.3C449,279.5,432.9,265.5,413.8,265.6L413.8,265.6z M358.4,18.2c4.7,0,8.5,3.8,8.5,8.5
				s-3.8,8.5-8.5,8.5s-8.5-3.8-8.5-8.5S353.7,18.2,358.4,18.2z M68.3,18.2c4.7,0,8.5,3.8,8.5,8.5s-3.8,8.5-8.5,8.5s-8.5-3.8-8.5-8.5
				S63.6,18.2,68.3,18.2z M230.4,325.3v17.1c0,9.4-7.6,17.1-17.1,17.1s-17.1-7.6-17.1-17.1v-17.1H230.4z M59.8,177.2
				c0-90.6,66-159,153.6-159s153.6,68.4,153.6,159c0,87-51.7,131.1-153.6,131.1S59.8,264.1,59.8,177.2L59.8,177.2z M230.4,495.9
				h-34.1c-9.4,0-17.1-7.6-17.1-17.1h68.3C247.5,488.3,239.8,495.9,230.4,495.9z M260.5,461.8h-94.3c-15.5,0-29.1-10.5-32.9-25.6
				h54.5c4.7,0,8.5-3.8,8.5-8.5s-3.8-8.5-8.5-8.5h-56.8l-6.2-56c-1.1-9.6,2-19.3,8.5-26.5s15.7-11.4,25.4-11.4h20.6v17.1
				c0,18.8,15.3,34.1,34.1,34.1s34.1-15.3,34.1-34.1v-17.1h20.6c9.7,0,19,4.1,25.4,11.4s9.6,16.9,8.5,26.5l-6.2,56h-56.8
				c-4.7,0-8.5,3.8-8.5,8.5s3.8,8.5,8.5,8.5h54.5C289.6,451.3,276,461.8,260.5,461.8z M316.9,383.6l2-17.6
				c26.1-3.4,50.4-15.3,69.1-33.9c4.4,4,9.6,7,15.4,8.6C380.7,365.1,349.9,380.3,316.9,383.6L316.9,383.6z M413.8,325.3
				c-11.8,0-21.3-9.5-21.3-21.3s9.5-21.3,21.3-21.3s21.3,9.5,21.3,21.3c0,5.7-2.2,11.1-6.2,15.1
				C424.9,323.1,419.5,325.3,413.8,325.3L413.8,325.3z"/>
			<path id="Shape_255_" class="st0" d="M413.8,231.5c-4.9,0-9.7,0.5-14.5,1.5c-4.6,1-7.6,5.5-6.6,10.1c1,4.6,5.5,7.6,10.1,6.6
				c3.6-0.7,7.3-1.1,11-1.1c15.4,0,30.2,6.5,40.6,17.9c2.1,2.3,5.2,3.2,8.1,2.6c3-0.7,5.4-2.8,6.3-5.7c0.9-2.9,0.2-6.1-1.8-8.3
				C453.4,240,434.1,231.5,413.8,231.5L413.8,231.5z"/>
		</g>
	</g>
</g>
</svg>
